<?xml version="1.0" encoding="utf-8"?>
<!DOCTYPE svg PUBLIC "-//W3C//DTD SVG 1.0//EN" "http://www.w3.org/TR/2001/REC-SVG-20010904/DTD/svg10.dtd">
<svg version="1.0" xmlns="http://www.w3.org/2000/svg" width="818px" height="354px" viewBox="0 0 818 354" preserveAspectRatio="xMidYMid meet">
 <g fill="#6d57b7">
  <path d="M114.50 342.25 c-18.20 -2.20 -35.50 -8.60 -51 -18.95 -29.35 -19.55 -47.95 -50.40 -51.75 -85.80 -0.60 -5.45 -0.75 -17.05 -0.75 -60.85 l0 -54.15 155 0 155 0 0 -2.40 c0 -10.05 3.45 -23.75 8.55 -33.80 5.90 -11.65 14.95 -21.90 25.80 -29.20 7.65 -5.15 18.30 -9.60 27.95 -11.70 4.80 -1 6.80 -1.15 16.70 -1.15 12.70 0 16.40 0.50 25.70 3.60 26.85 8.85 46.70 31.40 52.05 59.30 0.45 2.40 1 6.80 1.15 9.75 l0.35 5.35 104.75 0.30 c74 0.20 105.65 0.45 107.75 0.85 12.90 2.40 19.80 4.35 28.90 8.15 35.75 14.95 62.05 46.65 69.85 84.20 2.40 11.45 2.50 14.05 2.50 72.40 l0 54.85 -336.60 -0.05 c-265.95 -0.05 -337.75 -0.20 -341.90 -0.70z m285.85 -221.35 c-0.05 -2.85 -0.15 -0.55 -0.15 5.10 0 5.65 0.10 7.95 0.15 5.15 0.10 -2.85 0.10 -7.45 0 -10.25z m24.30 -13.75 c-2.85 -0.10 -7.45 -0.10 -10.25 0 -2.85 0.05 -0.55 0.15 5.10 0.15 5.65 0 7.95 -0.10 5.15 -0.15z"/>
 </g>
 <g fill="#f6f5f6">
  <path d="M0 177 l0 -177 409 0 409 0 0 177 0 177 -409 0 -409 0 0 -177z m791.50 111.15 c0 -56.75 -0.10 -59.50 -2.50 -70.90 -7.80 -37.55 -34.10 -69.25 -69.85 -84.20 -9.10 -3.80 -16 -5.75 -28.90 -8.15 -2.10 -0.40 -33.75 -0.65 -107.75 -0.85 l-104.75 -0.30 -0.35 -5.35 c-0.65 -10.45 -2.95 -19.40 -7.40 -28.65 -3.40 -7.05 -5.95 -11.10 -10.35 -16.35 -11.30 -13.55 -27.75 -23.25 -45.40 -26.75 -7.10 -1.40 -22.25 -1.25 -29.45 0.25 -23.60 5.05 -43.10 19.90 -53.75 40.90 -5.10 10.05 -8.55 23.75 -8.55 33.80 l0 2.40 -155 0 -155 0 0 52.65 c0 42.50 0.15 53.90 0.75 59.35 2.45 23.10 10.85 43.55 25.20 61.50 5.50 6.95 9.15 10.65 15.80 16.20 18.05 15.15 39.05 24.35 61.75 27.05 4.15 0.50 75.65 0.65 340.40 0.70 l335.10 0.05 0 -53.35z"/>
  <path d="M405 160.50 c-2 -0.50 -5.50 -3.95 -5.50 -5.50 0 -1 -0.25 -1 -10.95 -1 -9.05 0 -11.05 -0.15 -11.55 -0.75 -0.35 -0.40 -0.50 -1.10 -0.30 -1.50 0.20 -0.60 1.30 -0.75 5.55 -0.75 l5.25 0 0 -6.45 0 -6.45 -8.10 -0.25 c-9.40 -0.30 -11.45 -0.75 -13.95 -3.30 -3.25 -3.20 -3.50 -5 -3.45 -23.35 0 -17.15 0.30 -19.55 2.55 -22.40 1.45 -1.85 4.25 -3.15 8 -3.80 4.25 -0.65 43.70 -0.65 47.95 0.05 4.85 0.75 6.95 2.15 8.70 5.60 1.25 2.55 1.45 3.60 1.75 9.10 l0.30 6.25 2.25 1.10 c1.75 0.90 2.55 1.75 3.50 3.65 l1.25 2.50 0 20.25 0 20.25 -1.25 2.45 c-2.15 4.30 -3 4.55 -17.75 4.65 -6.85 0.05 -13.30 -0.10 -14.25 -0.35z m28.50 -4.35 c1.95 -2.20 2.10 -3.85 1.90 -24.90 -0.15 -19.75 -0.20 -20.05 -3.15 -21.50 -2.35 -1.10 -24.40 -1.10 -27.05 0 -3 1.25 -3.10 1.75 -3.30 23.75 -0.15 22 -0.15 21.95 3.10 23.65 1.55 0.80 3.10 0.85 14.40 0.75 l12.70 -0.15 1.40 -1.60z m-34.90 -11.65 l-0.05 -6.25 -4 -0.15 -4.05 -0.15 0 6.20 c0 3.40 0.15 6.35 0.35 6.55 0.20 0.20 2 0.25 4.05 0.20 l3.70 -0.15 0 -6.25z m-0.10 -15 l0 -5.50 -16.80 0 -16.85 0 0.30 2.70 c0.50 4.80 2.25 6.95 6.40 7.75 1.20 0.25 7.75 0.45 14.60 0.50 l12.35 0.05 0 -5.50z m0 -11.25 c0 -3.95 0.90 -7.55 2.35 -9.30 2.40 -2.80 3.80 -3.10 16.10 -3.35 l11.20 -0.20 -0.25 -5.90 c-0.25 -6.35 -0.90 -8.20 -3.40 -10.10 -2.30 -1.70 -7 -1.95 -30.35 -1.80 -31.15 0.20 -28.75 -1.35 -29.15 19.30 -0.15 7.55 -0.15 13.80 -0.05 13.90 0.10 0.10 7.70 0.20 16.90 0.20 l16.65 0 0 -2.75z"/>
  <path d="M414.80 150 c-2.75 -1.40 -3.80 -2.45 -4.85 -4.90 -1.25 -2.85 -1.20 -5.10 0.15 -7.90 3.10 -6.60 12.45 -7.05 16.45 -0.85 3.20 5.10 1 11.50 -4.75 13.85 -2.50 1.05 -4.60 1 -7 -0.20z m7.35 -3.75 c0.70 -0.45 1.65 -1.80 2.15 -3 0.80 -2.10 0.80 -2.30 -0.25 -4.40 -1.10 -2.25 -3.45 -3.85 -5.75 -3.85 -1.50 0 -4.35 1.95 -5.20 3.50 -1.45 2.80 0.20 7.25 3.15 8.55 1.40 0.60 4.35 0.20 5.90 -0.80z"/>
  <path d="M414.45 125.45 c-1.15 -1.25 -1.45 -2 -1.45 -3.80 0 -1.90 0.25 -2.50 1.70 -3.95 2.35 -2.35 5 -2.40 7.55 -0.15 1.55 1.40 1.75 1.80 1.75 4.05 0 2.05 -0.25 2.70 -1.45 3.95 -1.25 1.25 -1.85 1.45 -4.05 1.45 -2.25 0 -2.80 -0.20 -4.05 -1.55z m5.75 -2.55 c1.05 -1.50 1 -1.75 -0.40 -2.65 -2.35 -1.55 -4.35 0.75 -2.45 2.85 1.05 1.20 1.95 1.15 2.85 -0.20z"/>
 </g>
</svg>